<svg width="410" height="104" viewBox="0 0 410 104" fill="none" xmlns="http://www.w3.org/2000/svg">
<path d="M104.223 17L104.205 9.37006L100.454 15.6525H99.1425L95.3912 9.51574V17H92.6233V4.25307H95.0635L99.8345 12.1744L104.533 4.25307H106.973L106.991 17H104.223ZM120.027 14.6327V17H110.158V4.25307H119.791V6.62036H113.089V9.38827H119.008V11.6827H113.089V14.6327H120.027ZM133.849 11.8648H131.992V17H129.096V11.8648H127.202L124.343 17H120.938L124.762 10.3352L121.175 4.25307H124.289L127.148 9.40648H129.096V4.25307H131.992V9.40648H133.885L136.763 4.25307H139.876L136.307 10.3352L140.113 17H136.708L133.849 11.8648ZM147.045 4.25307C148.174 4.25307 149.151 4.44124 149.976 4.81758C150.814 5.19392 151.457 5.72808 151.907 6.42005C152.356 7.11203 152.58 7.93148 152.58 8.8784C152.58 9.81317 152.356 10.6326 151.907 11.3367C151.457 12.0287 150.814 12.5629 149.976 12.9392C149.151 13.3034 148.174 13.4855 147.045 13.4855H144.477V17H141.527V4.25307H147.045ZM146.881 11.0818C147.767 11.0818 148.441 10.8936 148.902 10.5173C149.363 10.1288 149.594 9.58251 149.594 8.8784C149.594 8.16214 149.363 7.61584 148.902 7.2395C148.441 6.85102 147.767 6.65678 146.881 6.65678H144.477V11.0818H146.881ZM164.396 14.6327V17H154.526V4.25307H164.16V6.62036H157.458V9.38827H163.376V11.6827H157.458V14.6327H164.396ZM175.757 6.65678H169.693L169.711 17H166.779V4.25307H175.775L175.757 6.65678ZM177.573 4.25307H180.505V12.5568L186.587 4.25307H189.355V17H186.442V8.71451L180.36 17H177.573V4.25307ZM198.611 17.2185C197.288 17.2185 196.092 16.9333 195.024 16.3627C193.968 15.7921 193.136 15.0091 192.529 14.0136C191.934 13.006 191.637 11.877 191.637 10.6265C191.637 9.37613 191.934 8.25319 192.529 7.25771C193.136 6.25009 193.968 5.461 195.024 4.89042C196.092 4.31984 197.288 4.03455 198.611 4.03455C199.934 4.03455 201.124 4.31984 202.18 4.89042C203.236 5.461 204.068 6.25009 204.675 7.25771C205.282 8.25319 205.586 9.37613 205.586 10.6265C205.586 11.877 205.282 13.006 204.675 14.0136C204.068 15.0091 203.236 15.7921 202.18 16.3627C201.124 16.9333 199.934 17.2185 198.611 17.2185ZM198.611 14.7056C199.364 14.7056 200.044 14.5356 200.651 14.1957C201.258 13.8436 201.731 13.358 202.071 12.7389C202.423 12.1198 202.599 11.4156 202.599 10.6265C202.599 9.83745 202.423 9.13333 202.071 8.5142C201.731 7.89506 201.258 7.41553 200.651 7.07561C200.044 6.72355 199.364 6.54752 198.611 6.54752C197.858 6.54752 197.179 6.72355 196.572 7.07561C195.965 7.41553 195.485 7.89506 195.133 8.5142C194.793 9.13333 194.623 9.83745 194.623 10.6265C194.623 11.4156 194.793 12.1198 195.133 12.7389C195.485 13.358 195.965 13.8436 196.572 14.1957C197.179 14.5356 197.858 14.7056 198.611 14.7056ZM219.549 4.25307V17H216.599V11.7738H210.808V17H207.858V4.25307H210.808V9.27901H216.599V4.25307H219.549ZM231.374 14.2685H225.456L224.327 17H221.304L226.986 4.25307H229.899L235.599 17H232.503L231.374 14.2685ZM230.445 12.0287L228.424 7.14845L226.403 12.0287H230.445ZM248.759 4.25307V17H245.845V6.65678H241.475L241.384 9.31543C241.323 11.1243 241.178 12.5932 240.947 13.7222C240.716 14.8391 240.328 15.7011 239.781 16.3081C239.247 16.9029 238.495 17.2003 237.523 17.2003C237.123 17.2003 236.637 17.1336 236.067 17L236.249 14.5053C236.407 14.5538 236.583 14.5781 236.777 14.5781C237.481 14.5781 237.973 14.1653 238.252 13.3398C238.531 12.5022 238.707 11.1971 238.78 9.42469L238.962 4.25307H248.759ZM258.116 8.44136C259.67 8.44136 260.859 8.78735 261.685 9.47932C262.523 10.1713 262.941 11.1971 262.941 12.5568C262.941 14.0015 262.48 15.1062 261.557 15.871C260.647 16.6237 259.36 17 257.697 17H251.943V4.25307H254.874V8.44136H258.116ZM257.533 14.8148C258.298 14.8148 258.893 14.6267 259.318 14.2503C259.755 13.874 259.973 13.3277 259.973 12.6114C259.973 11.2882 259.16 10.6265 257.533 10.6265H254.874V14.8148H257.533ZM276.757 4.25307V17H273.807V11.7738H268.017V17H265.067V4.25307H268.017V9.27901H273.807V4.25307H276.757ZM286.124 8.44136C287.678 8.44136 288.868 8.78735 289.693 9.47932C290.531 10.1713 290.95 11.1971 290.95 12.5568C290.95 14.0015 290.488 15.1062 289.566 15.871C288.655 16.6237 287.369 17 285.705 17H279.951V4.25307H282.883V8.44136H286.124ZM285.541 14.8148C286.306 14.8148 286.901 14.6267 287.326 14.2503C287.763 13.874 287.982 13.3277 287.982 12.6114C287.982 11.2882 287.168 10.6265 285.541 10.6265H282.883V14.8148H285.541ZM292.571 4.25307H295.502V17H292.571V4.25307ZM298.677 4.25307H301.608V12.5568L307.691 4.25307H310.458V17H307.545V8.71451L301.463 17H298.677V4.25307ZM304.558 3.43362C302.228 3.43362 301.05 2.50491 301.026 0.6475H303.047C303.071 1.53372 303.575 1.97683 304.558 1.97683C305.044 1.97683 305.414 1.86757 305.669 1.64905C305.924 1.41839 306.058 1.08454 306.07 0.6475H308.091C308.079 1.558 307.782 2.24998 307.199 2.72343C306.616 3.19689 305.736 3.43362 304.558 3.43362ZM96.7024 24.0346C97.9649 24.0346 99.0939 24.3198 100.089 24.8904C101.097 25.4489 101.886 26.2319 102.457 27.2395C103.027 28.235 103.313 29.364 103.313 30.6265C103.313 31.8891 103.027 33.0242 102.457 34.0318C101.886 35.0273 101.097 35.8103 100.089 36.3809C99.0939 36.9393 97.9649 37.2185 96.7024 37.2185C95.5733 37.2185 94.5536 37.0243 93.6431 36.6358C92.7447 36.2474 91.992 35.6828 91.3851 34.9423L93.2607 33.1942C94.159 34.2018 95.2577 34.7056 96.5567 34.7056C97.4915 34.7056 98.2806 34.4324 98.924 33.8861C99.5795 33.3398 100.004 32.6054 100.199 31.6827H95.027V29.4247H100.162C99.9559 28.5506 99.531 27.8526 98.8875 27.3306C98.2441 26.8085 97.4672 26.5475 96.5567 26.5475C95.2577 26.5475 94.159 27.0513 93.2607 28.0589L91.3851 26.3108C91.992 25.5703 92.7447 25.0057 93.6431 24.6173C94.5536 24.2288 95.5733 24.0346 96.7024 24.0346ZM110.558 31.8648H108.518V37H105.586V24.2531H108.518V29.4065H110.631L113.981 24.2531H117.095L112.925 30.408L117.223 37H113.872L110.558 31.8648ZM124.579 37.2185C123.28 37.2185 122.102 36.9393 121.046 36.3809C120.002 35.8103 119.176 35.0273 118.569 34.0318C117.975 33.0242 117.677 31.8891 117.677 30.6265C117.677 29.364 117.975 28.235 118.569 27.2395C119.176 26.2319 120.002 25.4489 121.046 24.8904C122.102 24.3198 123.286 24.0346 124.597 24.0346C125.702 24.0346 126.697 24.2288 127.583 24.6173C128.482 25.0057 129.234 25.5642 129.841 26.2926L127.947 28.0407C127.086 27.0453 126.017 26.5475 124.743 26.5475C123.953 26.5475 123.249 26.7236 122.63 27.0756C122.011 27.4155 121.525 27.8951 121.173 28.5142C120.833 29.1333 120.664 29.8375 120.664 30.6265C120.664 31.4156 120.833 32.1198 121.173 32.7389C121.525 33.358 122.011 33.8436 122.63 34.1957C123.249 34.5356 123.953 34.7056 124.743 34.7056C126.017 34.7056 127.086 34.2018 127.947 33.1942L129.841 34.9423C129.234 35.6828 128.482 36.2474 127.583 36.6358C126.685 37.0243 125.683 37.2185 124.579 37.2185ZM143.382 24.2531V37H140.45V26.6568H134.696V37H131.764V24.2531H143.382ZM156.412 34.6327V37H146.542V24.2531H156.175V26.6204H149.474V29.3883H155.392V31.6827H149.474V34.6327H156.412ZM164.312 24.2531C165.441 24.2531 166.418 24.4412 167.244 24.8176C168.081 25.1939 168.725 25.7281 169.174 26.4201C169.623 27.112 169.848 27.9315 169.848 28.8784C169.848 29.8132 169.623 30.6326 169.174 31.3367C168.725 32.0287 168.081 32.5629 167.244 32.9392C166.418 33.3034 165.441 33.4855 164.312 33.4855H161.744V37H158.794V24.2531H164.312ZM164.148 31.0818C165.034 31.0818 165.708 30.8936 166.169 30.5173C166.631 30.1288 166.861 29.5825 166.861 28.8784C166.861 28.1621 166.631 27.6158 166.169 27.2395C165.708 26.851 165.034 26.6568 164.148 26.6568H161.744V31.0818H164.148ZM181.181 26.6568H177.102V37H174.188V26.6568H170.127V24.2531H181.181V26.6568ZM194.724 24.2531V37H191.774V31.7738H185.983V37H183.033V24.2531H185.983V29.279H191.774V24.2531H194.724ZM204.091 28.4414C205.644 28.4414 206.834 28.7873 207.66 29.4793C208.497 30.1713 208.916 31.1971 208.916 32.5568C208.916 34.0015 208.455 35.1062 207.532 35.871C206.622 36.6237 205.335 37 203.672 37H197.917V24.2531H200.849V28.4414H204.091ZM203.508 34.8148C204.273 34.8148 204.867 34.6267 205.292 34.2503C205.729 33.874 205.948 33.3277 205.948 32.6114C205.948 31.2882 205.135 30.6265 203.508 30.6265H200.849V34.8148H203.508ZM210.537 24.2531H213.469V37H210.537V24.2531ZM216.643 24.2531H219.575V32.5568L225.657 24.2531H228.425V37H225.511V28.7145L219.429 37H216.643V24.2531ZM222.525 23.4336C220.194 23.4336 219.016 22.5049 218.992 20.6475H221.013C221.038 21.5337 221.541 21.9768 222.525 21.9768C223.01 21.9768 223.381 21.8676 223.636 21.649C223.891 21.4184 224.024 21.0845 224.036 20.6475H226.058C226.045 21.558 225.748 22.25 225.165 22.7234C224.583 23.1969 223.702 23.4336 222.525 23.4336ZM250.122 34.5963V39.6951H247.409V37H236.756V24.2531H239.688V34.5963H245.369V24.2531H248.301V34.5963H250.122ZM261.937 34.6327V37H252.067V24.2531H261.7V26.6204H254.999V29.3883H260.917V31.6827H254.999V34.6327H261.937ZM276.01 24.2531V37H273.06V31.7738H267.27V37H264.32V24.2531H267.27V29.279H273.06V24.2531H276.01ZM288.946 26.6568H284.867V37H281.954V26.6568H277.893V24.2531H288.946V26.6568ZM296.316 24.2531C297.445 24.2531 298.423 24.4412 299.248 24.8176C300.086 25.1939 300.729 25.7281 301.178 26.4201C301.628 27.112 301.852 27.9315 301.852 28.8784C301.852 29.8132 301.628 30.6326 301.178 31.3367C300.729 32.0287 300.086 32.5629 299.248 32.9392C298.423 33.3034 297.445 33.4855 296.316 33.4855H293.749V37H290.799V24.2531H296.316ZM296.152 31.0818C297.039 31.0818 297.712 30.8936 298.174 30.5173C298.635 30.1288 298.866 29.5825 298.866 28.8784C298.866 28.1621 298.635 27.6158 298.174 27.2395C297.712 26.851 297.039 26.6568 296.152 26.6568H293.749V31.0818H296.152ZM107.719 50.5901C107.719 52.2776 107.143 53.6069 105.989 54.5781C104.848 55.5372 103.203 56.0713 101.055 56.1806V57.5645H98.3413V56.1624C96.1803 56.041 94.5232 55.5007 93.3699 54.5417C92.2288 53.5705 91.6582 52.2533 91.6582 50.5901C91.6582 48.9148 92.2288 47.6037 93.3699 46.6568C94.5232 45.6977 96.1803 45.1514 98.3413 45.0179V43.7068H101.055V44.9997C103.203 45.1211 104.848 45.6674 105.989 46.6386C107.143 47.6098 107.719 48.927 107.719 50.5901ZM101.055 53.8679C102.341 53.7465 103.3 53.4187 103.932 52.8846C104.563 52.3383 104.879 51.5674 104.879 50.5719C104.879 48.6295 103.604 47.5491 101.055 47.3306V53.8679ZM94.5172 50.5901C94.5172 52.5082 95.7919 53.6008 98.3413 53.8679V47.3306C97.0423 47.4519 96.0771 47.7797 95.4459 48.3139C94.8267 48.8359 94.5172 49.5947 94.5172 50.5901ZM109.926 44.2531H112.858V52.5568L118.94 44.2531H121.708V57H118.795V48.7145L112.712 57H109.926V44.2531ZM136.573 44.2531V57H133.623V51.7738H127.832V57H124.882V44.2531H127.832V49.279H133.623V44.2531H136.573ZM148.398 54.2685H142.48L141.351 57H138.328L144.009 44.2531H146.923L152.623 57H149.527L148.398 54.2685ZM147.469 52.0287L145.448 47.1485L143.427 52.0287H147.469ZM166.004 44.2531V57H163.054V51.7738H157.263V57H154.313V44.2531H157.263V49.279H163.054V44.2531H166.004ZM175.225 57.2185C173.926 57.2185 172.749 56.9393 171.692 56.3809C170.648 55.8103 169.823 55.0273 169.216 54.0318C168.621 53.0242 168.323 51.8891 168.323 50.6265C168.323 49.364 168.621 48.235 169.216 47.2395C169.823 46.2319 170.648 45.4489 171.692 44.8904C172.749 44.3198 173.932 44.0346 175.243 44.0346C176.348 44.0346 177.343 44.2288 178.23 44.6173C179.128 45.0057 179.881 45.5642 180.488 46.2926L178.594 48.0407C177.732 47.0453 176.664 46.5475 175.389 46.5475C174.6 46.5475 173.896 46.7236 173.277 47.0756C172.657 47.4155 172.172 47.8951 171.82 48.5142C171.48 49.1333 171.31 49.8375 171.31 50.6265C171.31 51.4156 171.48 52.1198 171.82 52.7389C172.172 53.358 172.657 53.8436 173.277 54.1957C173.896 54.5356 174.6 54.7056 175.389 54.7056C176.664 54.7056 177.732 54.2018 178.594 53.1942L180.488 54.9423C179.881 55.6828 179.128 56.2474 178.23 56.6358C177.331 57.0243 176.33 57.2185 175.225 57.2185ZM188.226 57.2185C186.903 57.2185 185.707 56.9333 184.638 56.3627C183.582 55.7921 182.751 55.0091 182.144 54.0136C181.549 53.006 181.251 51.877 181.251 50.6265C181.251 49.3761 181.549 48.2532 182.144 47.2577C182.751 46.2501 183.582 45.461 184.638 44.8904C185.707 44.3198 186.903 44.0346 188.226 44.0346C189.549 44.0346 190.739 44.3198 191.795 44.8904C192.851 45.461 193.683 46.2501 194.29 47.2577C194.897 48.2532 195.2 49.3761 195.2 50.6265C195.2 51.877 194.897 53.006 194.29 54.0136C193.683 55.0091 192.851 55.7921 191.795 56.3627C190.739 56.9333 189.549 57.2185 188.226 57.2185ZM188.226 54.7056C188.978 54.7056 189.658 54.5356 190.265 54.1957C190.872 53.8436 191.346 53.358 191.686 52.7389C192.038 52.1198 192.214 51.4156 192.214 50.6265C192.214 49.8375 192.038 49.1333 191.686 48.5142C191.346 47.8951 190.872 47.4155 190.265 47.0756C189.658 46.7236 188.978 46.5475 188.226 46.5475C187.473 46.5475 186.793 46.7236 186.186 47.0756C185.579 47.4155 185.1 47.8951 184.748 48.5142C184.408 49.1333 184.238 49.8375 184.238 50.6265C184.238 51.4156 184.408 52.1198 184.748 52.7389C185.1 53.358 185.579 53.8436 186.186 54.1957C186.793 54.5356 187.473 54.7056 188.226 54.7056ZM206.305 50.3534C207.082 50.5841 207.676 50.9604 208.089 51.4824C208.502 52.0044 208.708 52.6479 208.708 53.4127C208.708 54.5417 208.277 55.4218 207.415 56.0531C206.566 56.6844 205.346 57 203.755 57H197.473V44.2531H203.409C204.89 44.2531 206.044 44.5384 206.869 45.1089C207.695 45.6795 208.107 46.4929 208.107 47.5491C208.107 48.1803 207.95 48.7388 207.634 49.2244C207.318 49.6978 206.875 50.0742 206.305 50.3534ZM200.405 49.534H203.154C203.798 49.534 204.283 49.4065 204.611 49.1515C204.939 48.8845 205.103 48.496 205.103 47.9861C205.103 47.4884 204.933 47.106 204.593 46.8389C204.265 46.5718 203.786 46.4383 203.154 46.4383H200.405V49.534ZM203.646 54.8148C205.03 54.8148 205.722 54.2685 205.722 53.1759C205.722 52.1198 205.03 51.5917 203.646 51.5917H200.405V54.8148H203.646ZM217.123 57.2185C215.8 57.2185 214.604 56.9333 213.536 56.3627C212.48 55.7921 211.648 55.0091 211.041 54.0136C210.446 53.006 210.149 51.877 210.149 50.6265C210.149 49.3761 210.446 48.2532 211.041 47.2577C211.648 46.2501 212.48 45.461 213.536 44.8904C214.604 44.3198 215.8 44.0346 217.123 44.0346C218.447 44.0346 219.636 44.3198 220.693 44.8904C221.749 45.461 222.58 46.2501 223.187 47.2577C223.794 48.2532 224.098 49.3761 224.098 50.6265C224.098 51.877 223.794 53.006 223.187 54.0136C222.58 55.0091 221.749 55.7921 220.693 56.3627C219.636 56.9333 218.447 57.2185 217.123 57.2185ZM217.123 54.7056C217.876 54.7056 218.556 54.5356 219.163 54.1957C219.77 53.8436 220.243 53.358 220.583 52.7389C220.935 52.1198 221.111 51.4156 221.111 50.6265C221.111 49.8375 220.935 49.1333 220.583 48.5142C220.243 47.8951 219.77 47.4155 219.163 47.0756C218.556 46.7236 217.876 46.5475 217.123 46.5475C216.371 46.5475 215.691 46.7236 215.084 47.0756C214.477 47.4155 213.997 47.8951 213.645 48.5142C213.305 49.1333 213.135 49.8375 213.135 50.6265C213.135 51.4156 213.305 52.1198 213.645 52.7389C213.997 53.358 214.477 53.8436 215.084 54.1957C215.691 54.5356 216.371 54.7056 217.123 54.7056ZM235.348 46.6568H229.284L229.302 57H226.37V44.2531H235.366L235.348 46.6568ZM241.949 57.2185C240.625 57.2185 239.43 56.9333 238.361 56.3627C237.305 55.7921 236.474 55.0091 235.867 54.0136C235.272 53.006 234.974 51.877 234.974 50.6265C234.974 49.3761 235.272 48.2532 235.867 47.2577C236.474 46.2501 237.305 45.461 238.361 44.8904C239.43 44.3198 240.625 44.0346 241.949 44.0346C243.272 44.0346 244.462 44.3198 245.518 44.8904C246.574 45.461 247.406 46.2501 248.013 47.2577C248.62 48.2532 248.923 49.3761 248.923 50.6265C248.923 51.877 248.62 53.006 248.013 54.0136C247.406 55.0091 246.574 55.7921 245.518 56.3627C244.462 56.9333 243.272 57.2185 241.949 57.2185ZM241.949 54.7056C242.701 54.7056 243.381 54.5356 243.988 54.1957C244.595 53.8436 245.069 53.358 245.409 52.7389C245.761 52.1198 245.937 51.4156 245.937 50.6265C245.937 49.8375 245.761 49.1333 245.409 48.5142C245.069 47.8951 244.595 47.4155 243.988 47.0756C243.381 46.7236 242.701 46.5475 241.949 46.5475C241.196 46.5475 240.516 46.7236 239.909 47.0756C239.302 47.4155 238.823 47.8951 238.471 48.5142C238.131 49.1333 237.961 49.8375 237.961 50.6265C237.961 51.4156 238.131 52.1198 238.471 52.7389C238.823 53.358 239.302 53.8436 239.909 54.1957C240.516 54.5356 241.196 54.7056 241.949 54.7056ZM267.953 57L267.934 49.3701L264.183 55.6525H262.872L259.121 49.5157V57H256.353V44.2531H258.793L263.564 52.1744L268.262 44.2531H270.702L270.72 57H267.953ZM279.969 57.2185C278.646 57.2185 277.45 56.9333 276.382 56.3627C275.326 55.7921 274.494 55.0091 273.887 54.0136C273.292 53.006 272.995 51.877 272.995 50.6265C272.995 49.3761 273.292 48.2532 273.887 47.2577C274.494 46.2501 275.326 45.461 276.382 44.8904C277.45 44.3198 278.646 44.0346 279.969 44.0346C281.292 44.0346 282.482 44.3198 283.538 44.8904C284.594 45.461 285.426 46.2501 286.033 47.2577C286.64 48.2532 286.943 49.3761 286.943 50.6265C286.943 51.877 286.64 53.006 286.033 54.0136C285.426 55.0091 284.594 55.7921 283.538 56.3627C282.482 56.9333 281.292 57.2185 279.969 57.2185ZM279.969 54.7056C280.722 54.7056 281.402 54.5356 282.009 54.1957C282.616 53.8436 283.089 53.358 283.429 52.7389C283.781 52.1198 283.957 51.4156 283.957 50.6265C283.957 49.8375 283.781 49.1333 283.429 48.5142C283.089 47.8951 282.616 47.4155 282.009 47.0756C281.402 46.7236 280.722 46.5475 279.969 46.5475C279.216 46.5475 278.537 46.7236 277.93 47.0756C277.323 47.4155 276.843 47.8951 276.491 48.5142C276.151 49.1333 275.981 49.8375 275.981 50.6265C275.981 51.4156 276.151 52.1198 276.491 52.7389C276.843 53.358 277.323 53.8436 277.93 54.1957C278.537 54.5356 279.216 54.7056 279.969 54.7056ZM300.907 44.2531V57H297.957V51.7738H292.166V57H289.216V44.2531H292.166V49.279H297.957V44.2531H300.907ZM304.101 44.2531H307.032V52.5568L313.114 44.2531H315.882V57H312.969V48.7145L306.887 57H304.101V44.2531ZM328.798 46.6568H324.719V57H321.806V46.6568H317.745V44.2531H328.798V46.6568ZM336.555 57.2185C335.232 57.2185 334.036 56.9333 332.968 56.3627C331.912 55.7921 331.08 55.0091 330.473 54.0136C329.878 53.006 329.581 51.877 329.581 50.6265C329.581 49.3761 329.878 48.2532 330.473 47.2577C331.08 46.2501 331.912 45.461 332.968 44.8904C334.036 44.3198 335.232 44.0346 336.555 44.0346C337.878 44.0346 339.068 44.3198 340.124 44.8904C341.18 45.461 342.012 46.2501 342.619 47.2577C343.226 48.2532 343.529 49.3761 343.529 50.6265C343.529 51.877 343.226 53.006 342.619 54.0136C342.012 55.0091 341.18 55.7921 340.124 56.3627C339.068 56.9333 337.878 57.2185 336.555 57.2185ZM336.555 54.7056C337.308 54.7056 337.988 54.5356 338.595 54.1957C339.202 53.8436 339.675 53.358 340.015 52.7389C340.367 52.1198 340.543 51.4156 340.543 50.6265C340.543 49.8375 340.367 49.1333 340.015 48.5142C339.675 47.8951 339.202 47.4155 338.595 47.0756C337.988 46.7236 337.308 46.5475 336.555 46.5475C335.802 46.5475 335.123 46.7236 334.516 47.0756C333.909 47.4155 333.429 47.8951 333.077 48.5142C332.737 49.1333 332.567 49.8375 332.567 50.6265C332.567 51.4156 332.737 52.1198 333.077 52.7389C333.429 53.358 333.909 53.8436 334.516 54.1957C335.123 54.5356 335.802 54.7056 336.555 54.7056ZM351.32 44.2531C352.449 44.2531 353.426 44.4412 354.251 44.8176C355.089 45.1939 355.732 45.7281 356.182 46.4201C356.631 47.112 356.855 47.9315 356.855 48.8784C356.855 49.8132 356.631 50.6326 356.182 51.3367C355.732 52.0287 355.089 52.5629 354.251 52.9392C353.426 53.3034 352.449 53.4855 351.32 53.4855H348.752V57H345.802V44.2531H351.32ZM351.156 51.0818C352.042 51.0818 352.716 50.8936 353.177 50.5173C353.638 50.1288 353.869 49.5825 353.869 48.8784C353.869 48.1621 353.638 47.6158 353.177 47.2395C352.716 46.851 352.042 46.6568 351.156 46.6568H348.752V51.0818H351.156ZM358.801 44.2531H361.733V52.5568L367.815 44.2531H370.583V57H367.67V48.7145L361.588 57H358.801V44.2531ZM385.448 44.2531V57H382.498V51.7738H376.707V57H373.757V44.2531H376.707V49.279H382.498V44.2531H385.448ZM397.619 46.6568H391.555L391.573 57H388.642V44.2531H397.637L397.619 46.6568ZM405.596 54.2685H399.677L398.548 57H395.526L401.207 44.2531H404.121L409.82 57H406.725L405.596 54.2685ZM404.667 52.0287L402.646 47.1485L400.624 52.0287H404.667Z" fill="black"/>
<path d="M103.841 86.1763V98.9232H102.511V93.0414H94.5354V98.9232H93.1878V86.1763H94.5354V91.8578H102.511V86.1763H103.841ZM116.302 95.518H109.2L107.67 98.9232H106.268L112.095 86.1763H113.424L119.252 98.9232H117.831L116.302 95.518ZM115.81 94.4254L112.751 87.5785L109.691 94.4254H115.81ZM134.077 97.7578V101.91H132.82V98.9232H121.694V86.1763H123.024V97.7578H130.726V86.1763H132.056V97.7578H134.077ZM136.757 86.1763H138.086V96.7381L146.244 86.1763H147.464V98.9232H146.135V88.3797L137.977 98.9232H136.757V86.1763ZM157.356 99.0325C156.093 99.0325 154.946 98.7533 153.914 98.1949C152.895 97.6243 152.093 96.8473 151.511 95.864C150.94 94.8806 150.655 93.7759 150.655 92.5498C150.655 91.3236 150.94 90.2189 151.511 89.2356C152.093 88.2522 152.895 87.4813 153.914 86.9229C154.946 86.3523 156.093 86.067 157.356 86.067C158.619 86.067 159.754 86.3462 160.761 86.9047C161.781 87.4631 162.582 88.2401 163.165 89.2356C163.748 90.2189 164.039 91.3236 164.039 92.5498C164.039 93.7759 163.748 94.8867 163.165 95.8822C162.582 96.8655 161.781 97.6364 160.761 98.1949C159.754 98.7533 158.619 99.0325 157.356 99.0325ZM157.356 97.8307C158.364 97.8307 159.274 97.6061 160.087 97.1569C160.901 96.6956 161.538 96.0643 162 95.263C162.461 94.4497 162.691 93.5452 162.691 92.5498C162.691 91.5543 162.461 90.6559 162 89.8547C161.538 89.0413 160.901 88.41 160.087 87.9609C159.274 87.4995 158.364 87.2689 157.356 87.2689C156.348 87.2689 155.432 87.4995 154.606 87.9609C153.793 88.41 153.149 89.0413 152.676 89.8547C152.215 90.6559 151.984 91.5543 151.984 92.5498C151.984 93.5452 152.215 94.4497 152.676 95.263C153.149 96.0643 153.793 96.6956 154.606 97.1569C155.432 97.6061 156.348 97.8307 157.356 97.8307ZM177.907 86.1763V98.9232H176.578V93.0414H168.602V98.9232H167.255V86.1763H168.602V91.8578H176.578V86.1763H177.907ZM190.368 95.518H183.266L181.737 98.9232H180.335L186.162 86.1763H187.491L193.318 98.9232H191.898L190.368 95.518ZM189.877 94.4254L186.817 87.5785L183.758 94.4254H189.877ZM205.794 86.1763V98.9232H204.465V87.3417H198.31L198.164 91.6029C198.103 93.3631 197.958 94.7835 197.727 95.864C197.508 96.9323 197.168 97.7335 196.707 98.2677C196.246 98.7897 195.633 99.0507 194.868 99.0507C194.54 99.0507 194.2 99.0082 193.848 98.9232L193.957 97.7214C194.164 97.77 194.364 97.7942 194.558 97.7942C195.092 97.7942 195.523 97.5818 195.851 97.1569C196.191 96.732 196.446 96.0764 196.616 95.1902C196.786 94.2919 196.901 93.1082 196.962 91.6393L197.144 86.1763H205.794ZM215.43 90.7288C216.935 90.7288 218.082 91.0687 218.871 91.7485C219.673 92.4284 220.073 93.4238 220.073 94.735C220.073 96.1068 219.648 97.1508 218.799 97.8671C217.961 98.5712 216.747 98.9232 215.157 98.9232H210.094V86.1763H211.424V90.7288H215.43ZM215.12 97.8489C216.298 97.8489 217.19 97.5879 217.797 97.0658C218.416 96.5438 218.726 95.7729 218.726 94.7532C218.726 92.7986 217.524 91.8214 215.12 91.8214H211.424V97.8489H215.12ZM233.675 86.1763V98.9232H232.346V93.0414H224.37V98.9232H223.023V86.1763H224.37V91.8578H232.346V86.1763H233.675ZM243.569 99.0325C242.306 99.0325 241.159 98.7533 240.127 98.1949C239.107 97.6243 238.306 96.8473 237.723 95.864C237.153 94.8806 236.867 93.7759 236.867 92.5498C236.867 91.3236 237.153 90.2189 237.723 89.2356C238.306 88.2522 239.107 87.4813 240.127 86.9229C241.159 86.3523 242.306 86.067 243.569 86.067C244.831 86.067 245.966 86.3462 246.974 86.9047C247.994 87.4631 248.795 88.2401 249.378 89.2356C249.96 90.2189 250.252 91.3236 250.252 92.5498C250.252 93.7759 249.96 94.8867 249.378 95.8822C248.795 96.8655 247.994 97.6364 246.974 98.1949C245.966 98.7533 244.831 99.0325 243.569 99.0325ZM243.569 97.8307C244.576 97.8307 245.487 97.6061 246.3 97.1569C247.114 96.6956 247.751 96.0643 248.212 95.263C248.674 94.4497 248.904 93.5452 248.904 92.5498C248.904 91.5543 248.674 90.6559 248.212 89.8547C247.751 89.0413 247.114 88.41 246.3 87.9609C245.487 87.4995 244.576 87.2689 243.569 87.2689C242.561 87.2689 241.644 87.4995 240.819 87.9609C240.006 88.41 239.362 89.0413 238.889 89.8547C238.427 90.6559 238.197 91.5543 238.197 92.5498C238.197 93.5452 238.427 94.4497 238.889 95.263C239.362 96.0643 240.006 96.6956 240.819 97.1569C241.644 97.6061 242.561 97.8307 243.569 97.8307ZM262.481 97.7578V98.9232H253.467V86.1763H262.208V87.3417H254.815V91.876H261.407V93.0232H254.815V97.7578H262.481ZM281.946 97.7578V101.782H280.689V98.9232H269.563L269.545 101.782H268.288L268.307 97.7578H268.944C269.782 97.7093 270.364 97.0476 270.692 95.7729C271.02 94.4861 271.22 92.6651 271.293 90.3099L271.439 86.1763H280.034V97.7578H281.946ZM272.495 90.4374C272.434 92.3798 272.282 93.9823 272.04 95.2448C271.809 96.4953 271.414 97.3329 270.856 97.7578H278.704V87.3417H272.604L272.495 90.4374ZM290.285 99.0325C289.022 99.0325 287.875 98.7533 286.843 98.1949C285.824 97.6243 285.022 96.8473 284.44 95.864C283.869 94.8806 283.584 93.7759 283.584 92.5498C283.584 91.3236 283.869 90.2189 284.44 89.2356C285.022 88.2522 285.824 87.4813 286.843 86.9229C287.875 86.3523 289.022 86.067 290.285 86.067C291.548 86.067 292.683 86.3462 293.69 86.9047C294.71 87.4631 295.511 88.2401 296.094 89.2356C296.677 90.2189 296.968 91.3236 296.968 92.5498C296.968 93.7759 296.677 94.8867 296.094 95.8822C295.511 96.8655 294.71 97.6364 293.69 98.1949C292.683 98.7533 291.548 99.0325 290.285 99.0325ZM290.285 97.8307C291.293 97.8307 292.203 97.6061 293.017 97.1569C293.83 96.6956 294.467 96.0643 294.929 95.263C295.39 94.4497 295.621 93.5452 295.621 92.5498C295.621 91.5543 295.39 90.6559 294.929 89.8547C294.467 89.0413 293.83 88.41 293.017 87.9609C292.203 87.4995 291.293 87.2689 290.285 87.2689C289.277 87.2689 288.361 87.4995 287.535 87.9609C286.722 88.41 286.079 89.0413 285.605 89.8547C285.144 90.6559 284.913 91.5543 284.913 92.5498C284.913 93.5452 285.144 94.4497 285.605 95.263C286.079 96.0643 286.722 96.6956 287.535 97.1569C288.361 97.6061 289.277 97.8307 290.285 97.8307ZM305.756 99.0325C304.493 99.0325 303.352 98.7533 302.332 98.1949C301.325 97.6364 300.53 96.8655 299.947 95.8822C299.376 94.8867 299.091 93.7759 299.091 92.5498C299.091 91.3236 299.376 90.2189 299.947 89.2356C300.53 88.2401 301.331 87.4631 302.351 86.9047C303.37 86.3462 304.512 86.067 305.774 86.067C306.721 86.067 307.595 86.2248 308.396 86.5405C309.198 86.8561 309.877 87.3174 310.436 87.9244L309.58 88.7803C308.585 87.7727 307.328 87.2689 305.811 87.2689C304.803 87.2689 303.886 87.4995 303.061 87.9609C302.235 88.4222 301.586 89.0535 301.112 89.8547C300.651 90.6559 300.42 91.5543 300.42 92.5498C300.42 93.5452 300.651 94.4436 301.112 95.2448C301.586 96.0461 302.235 96.6774 303.061 97.1387C303.886 97.6 304.803 97.8307 305.811 97.8307C307.34 97.8307 308.597 97.3208 309.58 96.301L310.436 97.1569C309.877 97.7639 309.192 98.2313 308.378 98.559C307.577 98.8747 306.703 99.0325 305.756 99.0325ZM321.399 87.3417H316.919V98.9232H315.59V87.3417H311.11V86.1763H321.399V87.3417ZM329.177 99.0325C327.914 99.0325 326.767 98.7533 325.735 98.1949C324.715 97.6243 323.914 96.8473 323.331 95.864C322.761 94.8806 322.475 93.7759 322.475 92.5498C322.475 91.3236 322.761 90.2189 323.331 89.2356C323.914 88.2522 324.715 87.4813 325.735 86.9229C326.767 86.3523 327.914 86.067 329.177 86.067C330.439 86.067 331.574 86.3462 332.582 86.9047C333.602 87.4631 334.403 88.2401 334.986 89.2356C335.568 90.2189 335.86 91.3236 335.86 92.5498C335.86 93.7759 335.568 94.8867 334.986 95.8822C334.403 96.8655 333.602 97.6364 332.582 98.1949C331.574 98.7533 330.439 99.0325 329.177 99.0325ZM329.177 97.8307C330.184 97.8307 331.095 97.6061 331.908 97.1569C332.722 96.6956 333.359 96.0643 333.82 95.263C334.282 94.4497 334.512 93.5452 334.512 92.5498C334.512 91.5543 334.282 90.6559 333.82 89.8547C333.359 89.0413 332.722 88.41 331.908 87.9609C331.095 87.4995 330.184 87.2689 329.177 87.2689C328.169 87.2689 327.253 87.4995 326.427 87.9609C325.614 88.41 324.97 89.0413 324.497 89.8547C324.035 90.6559 323.805 91.5543 323.805 92.5498C323.805 93.5452 324.035 94.4497 324.497 95.263C324.97 96.0643 325.614 96.6956 326.427 97.1569C327.253 97.6061 328.169 97.8307 329.177 97.8307ZM347.645 86.1763V98.9232H346.316V95.0627H342.51C342.34 95.0627 342.097 95.0506 341.782 95.0263L339.105 98.9232H337.666L340.562 94.7896C339.627 94.5104 338.91 94.0187 338.413 93.3146C337.915 92.5983 337.666 91.7243 337.666 90.6924C337.666 89.2598 338.115 88.149 339.014 87.3599C339.924 86.5708 341.15 86.1763 342.692 86.1763H347.645ZM339.014 90.6559C339.014 91.7 339.317 92.5073 339.924 93.0779C340.543 93.6363 341.442 93.9155 342.619 93.9155H346.316V87.3417H342.747C341.557 87.3417 340.634 87.627 339.979 88.1976C339.335 88.756 339.014 89.5755 339.014 90.6559ZM362.603 86.1763V98.9232H361.274V93.0414H353.298V98.9232H351.95V86.1763H353.298V91.8578H361.274V86.1763H362.603ZM366.906 86.1763H368.235V96.7381L376.393 86.1763H377.614V98.9232H376.284V88.3797L368.126 98.9232H366.906V86.1763ZM390.929 97.7578V98.9232H381.915V86.1763H390.656V87.3417H383.263V91.876H389.855V93.0232H383.263V97.7578H390.929Z" fill="black"/>
<path fill-rule="evenodd" clip-rule="evenodd" d="M36.415 6.85061C32.644 6.85061 29.5871 9.91771 29.5871 13.7012C29.5871 17.4846 32.644 20.5517 36.415 20.5517C40.1859 20.5517 43.2429 17.4846 43.2429 13.7012C43.2429 9.91771 40.1859 6.85061 36.415 6.85061ZM25.0352 13.7012C25.0352 7.39541 30.1301 2.28357 36.415 2.28357C42.6999 2.28357 47.7948 7.39541 47.7948 13.7012C47.7948 20.0069 42.6999 25.1188 36.415 25.1188C30.1301 25.1188 25.0352 20.0069 25.0352 13.7012Z" fill="#A20E8B"/>
<path fill-rule="evenodd" clip-rule="evenodd" d="M11.3798 43.387C7.60889 43.387 4.55193 46.4541 4.55193 50.2375C4.55193 54.021 7.60889 57.0881 11.3798 57.0881C15.1508 57.0881 18.2077 54.021 18.2077 50.2375C18.2077 46.4541 15.1508 43.387 11.3798 43.387ZM0 50.2375C0 43.9318 5.09493 38.8199 11.3798 38.8199C17.6647 38.8199 22.7597 43.9318 22.7597 50.2375C22.7597 56.5433 17.6647 61.6551 11.3798 61.6551C5.09493 61.6551 0 56.5433 0 50.2375Z" fill="#A20E8B"/>
<path fill-rule="evenodd" clip-rule="evenodd" d="M59.1757 43.3869C55.4048 43.3869 52.3478 46.454 52.3478 50.2375C52.3478 54.021 55.4048 57.0881 59.1757 57.0881C62.9467 57.0881 66.0036 54.021 66.0036 50.2375C66.0036 46.454 62.9467 43.3869 59.1757 43.3869ZM47.7959 50.2375C47.7959 43.9317 52.8908 38.8199 59.1757 38.8199C65.4606 38.8199 70.5556 43.9317 70.5556 50.2375C70.5556 56.5433 65.4606 61.6551 59.1757 61.6551C52.8908 61.6551 47.7959 56.5433 47.7959 50.2375Z" fill="#A20E8B"/>
<path d="M56.8987 50.2375C56.8987 48.9764 57.9178 47.954 59.1749 47.954C60.4321 47.954 61.4512 48.9764 61.4512 50.2375C61.4512 51.4987 60.4321 52.521 59.1749 52.521C57.9178 52.521 56.8987 51.4987 56.8987 50.2375Z" fill="#A20E8B"/>
<path fill-rule="evenodd" clip-rule="evenodd" d="M36.415 79.9232C32.644 79.9232 29.5871 82.9903 29.5871 86.7738C29.5871 90.5572 32.644 93.6243 36.415 93.6243C40.1859 93.6243 43.2429 90.5572 43.2429 86.7738C43.2429 82.9903 40.1859 79.9232 36.415 79.9232ZM25.0352 86.7738C25.0352 80.468 30.1301 75.3562 36.415 75.3562C42.6999 75.3562 47.7948 80.468 47.7948 86.7738C47.7948 93.0795 42.6999 98.1914 36.415 98.1914C30.1301 98.1914 25.0352 93.0795 25.0352 86.7738Z" fill="#A20E8B"/>
<path fill-rule="evenodd" clip-rule="evenodd" d="M53.9159 42.4404L39.1221 21.8887L42.8122 19.2147L57.606 39.7664L53.9159 42.4404Z" fill="#A20E8B"/>
<path fill-rule="evenodd" clip-rule="evenodd" d="M42.8127 81.2603L57.6064 60.7086L53.9163 58.0346L39.1225 78.5863L42.8127 81.2603Z" fill="#A20E8B"/>
<path fill-rule="evenodd" clip-rule="evenodd" d="M50.071 52.5211H20.4834V47.954H50.071V52.5211Z" fill="#A20E8B"/>
<rect x="90.9893" y="69.2206" width="318.635" height="2.28352" fill="#C4C4C4"/>
</svg>
